<?xml version="1.0" standalone="no"?>
<!DOCTYPE svg PUBLIC "-//W3C//DTD SVG 20010904//EN"
 "http://www.w3.org/TR/2001/REC-SVG-20010904/DTD/svg10.dtd">
<svg version="1.0" xmlns="http://www.w3.org/2000/svg"
 width="1103.000000pt" height="440.000000pt" viewBox="0 0 1103.000000 440.000000"
 preserveAspectRatio="xMidYMid meet">

<g transform="translate(0.000000,440.000000) scale(0.100000,-0.100000)"
fill="#000000" stroke="none">
<path d="M2760 2205 l0 -2000 201 201 201 201 0 299 1 299 497 493 497 494
143 -141 c78 -78 147 -141 154 -141 6 0 78 66 159 148 l147 147 -1000 1000
-1000 1000 0 -2000z m732 13 l-332 -333 0 665 0 665 332 -333 333 -332 -333
-332z"/>
<path d="M8150 3211 c-343 -73 -527 -313 -490 -639 16 -143 77 -250 193 -338
84 -64 172 -103 399 -178 212 -69 259 -90 313 -137 83 -73 93 -175 24 -253
-38 -44 -103 -66 -193 -66 -122 0 -199 58 -226 170 l-12 50 -255 0 -256 0 7
-57 c15 -136 66 -243 161 -338 150 -151 391 -228 659 -212 207 13 373 78 491
192 174 169 223 427 120 641 -70 145 -209 237 -520 344 -296 102 -370 146
-395 239 -12 47 -1 112 28 150 46 62 146 86 243 58 68 -20 115 -67 140 -139
l18 -53 255 -3 256 -2 0 32 c-1 96 -64 253 -137 337 -81 95 -226 172 -385 205
-106 22 -326 20 -438 -3z"/>
<path d="M200 2211 l0 -1011 245 0 245 0 0 380 0 380 58 0 58 0 209 -380 209
-380 273 0 c150 0 273 3 273 7 0 3 -102 181 -226 395 -127 217 -223 393 -218
397 5 5 24 13 43 20 70 23 168 86 227 147 114 115 171 275 161 449 -15 256
-152 447 -384 537 -145 56 -177 59 -695 65 l-478 5 0 -1011z m885 584 c110
-29 164 -96 173 -214 6 -89 -15 -155 -67 -205 -58 -56 -104 -66 -318 -66
l-183 0 0 250 0 250 168 0 c119 0 185 -5 227 -15z"/>
<path d="M2070 2210 l0 -1010 245 0 245 0 -2 1007 -3 1008 -242 3 -243 2 0
-1010z"/>
<path d="M4410 3015 l0 -195 260 0 260 0 0 -795 0 -795 240 0 240 0 0 795 0
795 265 0 265 0 -2 193 -3 192 -762 3 -763 2 0 -195z"/>
<path d="M6177 3203 c-4 -3 -7 -449 -7 -990 l0 -983 605 0 605 0 0 195 0 195
-360 0 -360 0 0 215 0 215 320 0 320 0 0 185 0 185 -320 0 -320 0 0 200 0 200
360 0 360 0 0 195 0 195 -598 0 c-329 0 -602 -3 -605 -7z"/>
<path d="M9330 3015 l0 -195 260 0 260 0 0 -795 0 -795 240 0 240 0 0 795 0
795 265 0 265 0 -2 193 -3 192 -762 3 -763 2 0 -195z"/>
</g>
</svg>
