<?xml version="1.0" encoding="UTF-8"?>
<!DOCTYPE svg PUBLIC "-//W3C//DTD SVG 1.1//EN" "http://www.w3.org/Graphics/SVG/1.1/DTD/svg11.dtd">
<svg xmlns="http://www.w3.org/2000/svg" version="1.1" width="1103px" height="440px" style="shape-rendering:geometricPrecision; text-rendering:geometricPrecision; image-rendering:optimizeQuality; fill-rule:evenodd; clip-rule:evenodd" xmlns:xlink="http://www.w3.org/1999/xlink">
<g><path style="opacity:0.981" fill="#353aa0" d="M 275.5,18.5 C 342.672,84.8385 409.338,151.672 475.5,219C 466.298,229.869 456.132,239.702 445,248.5C 434.91,240.414 425.41,231.581 416.5,222C 415.833,221.333 415.167,221.333 414.5,222C 381.973,254.194 349.473,286.361 317,318.5C 316.667,338.833 316.333,359.167 316,379.5C 302.667,392.833 289.333,406.167 276,419.5C 275.5,285.834 275.333,152.167 275.5,18.5 Z M 315.5,119.5 C 337.479,140.812 359.146,162.479 380.5,184.5C 359.181,206.32 337.681,227.986 316,249.5C 315.5,206.168 315.333,162.835 315.5,119.5 Z"/></g>
<g><path style="opacity:0.972" fill="#3fbbc3" d="M 60.5,117.5 C 55.8852,124.541 50.8852,131.374 45.5,138C 41.1287,138.828 36.7953,138.661 32.5,137.5C 29.7088,135.211 27.0421,132.711 24.5,130C 22.8659,129.506 21.1992,129.34 19.5,129.5C 19.5,125.167 19.5,120.833 19.5,116.5C 33.1676,116.802 46.8343,117.135 60.5,117.5 Z"/></g>
<g><path style="opacity:0.978" fill="#e8c234" d="M 857.5,169.5 C 858.5,169.5 859.5,169.5 860.5,169.5C 860.828,157.988 860.495,146.654 859.5,135.5C 858.081,134.549 856.415,134.216 854.5,134.5C 854.5,144.167 854.5,153.833 854.5,163.5C 846.616,155.559 837.282,153.393 826.5,157C 823.039,158.305 820.372,160.471 818.5,163.5C 818.5,154.167 818.5,144.833 818.5,135.5C 816.833,135.5 815.167,135.5 813.5,135.5C 813.5,146.833 813.5,158.167 813.5,169.5C 814.5,169.5 815.5,169.5 816.5,169.5C 816.119,174.186 817.119,178.519 819.5,182.5C 819.245,185.016 818.411,187.35 817,189.5C 816.5,195.825 816.334,202.158 816.5,208.5C 814.62,208.229 813.287,208.896 812.5,210.5C 808.115,214.076 806.448,218.743 807.5,224.5C 804.833,224.5 802.167,224.5 799.5,224.5C 776.211,215.617 764.544,198.617 764.5,173.5C 765.275,149.558 776.609,132.725 798.5,123C 810.973,117.672 823.973,115.505 837.5,116.5C 858.453,115.208 877.12,121.041 893.5,134C 904.729,145.514 910.396,159.348 910.5,175.5C 893.167,175.5 875.833,175.5 858.5,175.5C 858.167,173.5 857.833,171.5 857.5,169.5 Z"/></g>
<g><path style="opacity:0.951" fill="#e0c139" d="M 60.5,117.5 C 79.8539,117.254 99.1872,117.754 118.5,119C 143.037,121.899 160.537,134.399 171,156.5C 172.958,161.329 174.124,166.329 174.5,171.5C 173.279,172.028 172.113,172.695 171,173.5C 162.554,165.276 152.554,159.943 141,157.5C 130.423,159.272 124.923,165.605 124.5,176.5C 123.264,174.351 122.264,172.018 121.5,169.5C 124.474,156.837 132.474,151.337 145.5,153C 153.329,155.444 160.662,158.944 167.5,163.5C 167.833,163.167 168.167,162.833 168.5,162.5C 158.037,138.564 139.704,125.064 113.5,122C 97.1667,121.333 80.8333,121.333 64.5,122C 58.8333,129 53.1667,136 47.5,143C 42.1667,143.667 36.8333,143.667 31.5,143C 28.5256,140.362 25.5256,137.695 22.5,135C 21.552,134.517 20.552,134.351 19.5,134.5C 19.5,132.833 19.5,131.167 19.5,129.5C 21.1992,129.34 22.8659,129.506 24.5,130C 27.0421,132.711 29.7088,135.211 32.5,137.5C 36.7953,138.661 41.1287,138.828 45.5,138C 50.8852,131.374 55.8852,124.541 60.5,117.5 Z"/></g>
<g><path style="opacity:1" fill="#326f85" d="M 255.5,119.5 C 239.119,119.196 222.786,119.529 206.5,120.5C 206.5,119.5 206.5,118.5 206.5,117.5C 223.201,116.848 239.534,117.515 255.5,119.5 Z"/></g>
<g><path style="opacity:0.992" fill="#f08842" d="M 575.5,157.5 C 578.302,149.058 579.135,140.392 578,131.5C 577.047,129.545 575.713,127.878 574,126.5C 573.794,129.623 573.127,132.623 572,135.5C 563.936,140.629 559.769,147.962 559.5,157.5C 553.167,157.5 546.833,157.5 540.5,157.5C 540.5,160.167 540.5,162.833 540.5,165.5C 539.5,165.5 538.5,165.5 537.5,165.5C 537.5,158.167 537.5,150.833 537.5,143.5C 538.11,142.609 538.443,141.609 538.5,140.5C 538.437,135.797 538.771,131.13 539.5,126.5C 536.482,126.296 533.482,125.963 530.5,125.5C 530.5,132.167 530.5,138.833 530.5,145.5C 529.833,151.5 529.167,157.5 528.5,163.5C 516.328,161.565 504.328,162.232 492.5,165.5C 492.5,162.833 492.5,160.167 492.5,157.5C 475.167,157.5 457.833,157.5 440.5,157.5C 440.5,144.5 440.5,131.5 440.5,118.5C 491.5,118.5 542.5,118.5 593.5,118.5C 593.5,131.5 593.5,144.5 593.5,157.5C 587.5,157.5 581.5,157.5 575.5,157.5 Z"/></g>
<g><path style="opacity:0.998" fill="#9d3a82" d="M 705.5,197.5 C 684.276,204.855 662.943,212.355 641.5,220C 633.141,220.295 624.808,220.795 616.5,221.5C 616.5,187.167 616.5,152.833 616.5,118.5C 656.833,118.5 697.167,118.5 737.5,118.5C 737.5,131.5 737.5,144.5 737.5,157.5C 713.5,157.5 689.5,157.5 665.5,157.5C 665.5,170.833 665.5,184.167 665.5,197.5C 678.833,197.5 692.167,197.5 705.5,197.5 Z"/></g>
<g><path style="opacity:0.948" fill="#eb6a5f" d="M 1085.5,129.5 C 1083.16,126.67 1080.16,124.837 1076.5,124C 1031.17,123.5 985.835,123.333 940.5,123.5C 940.5,124.833 940.5,126.167 940.5,127.5C 937.549,124.805 934.882,125.138 932.5,128.5C 932.5,125.167 932.5,121.833 932.5,118.5C 983.5,118.5 1034.5,118.5 1085.5,118.5C 1085.5,122.167 1085.5,125.833 1085.5,129.5 Z"/></g>
<g><path style="opacity:0.996" fill="#e98844" d="M 255.5,119.5 C 255.5,121.167 255.5,122.833 255.5,124.5C 240.163,124.333 224.83,124.5 209.5,125C 208.018,127.592 208.352,129.925 210.5,132C 213.482,132.498 216.482,132.665 219.5,132.5C 219.667,148.837 219.5,165.17 219,181.5C 216.39,190.721 212.223,199.054 206.5,206.5C 206.5,203.167 206.5,199.833 206.5,196.5C 209.518,191.798 212.018,186.798 214,181.5C 214.5,166.837 214.667,152.17 214.5,137.5C 211.763,137.599 209.096,137.265 206.5,136.5C 206.5,131.167 206.5,125.833 206.5,120.5C 222.786,119.529 239.119,119.196 255.5,119.5 Z"/></g>
<g><path style="opacity:0.996" fill="#3dbcc5" d="M 121.5,169.5 C 117.601,164.136 112.267,160.97 105.5,160C 93.0194,158.476 80.6861,158.31 68.5,159.5C 62.1241,155.263 55.1241,152.596 47.5,151.5C 47.5,153.167 47.5,154.833 47.5,156.5C 55.4833,157.93 62.4833,161.264 68.5,166.5C 68.5,172.5 68.5,178.5 68.5,184.5C 60.483,166.987 46.8163,159.654 27.5,162.5C 26.1228,164.289 25.1228,166.289 24.5,168.5C 22.9547,169.452 21.288,169.785 19.5,169.5C 19.5,157.833 19.5,146.167 19.5,134.5C 20.552,134.351 21.552,134.517 22.5,135C 25.5256,137.695 28.5256,140.362 31.5,143C 36.8333,143.667 42.1667,143.667 47.5,143C 53.1667,136 58.8333,129 64.5,122C 80.8333,121.333 97.1667,121.333 113.5,122C 139.704,125.064 158.037,138.564 168.5,162.5C 168.167,162.833 167.833,163.167 167.5,163.5C 160.662,158.944 153.329,155.444 145.5,153C 132.474,151.337 124.474,156.837 121.5,169.5 Z"/></g>
<g><path style="opacity:0.994" fill="#42bac4" d="M 1085.5,129.5 C 1085.5,138.833 1085.5,148.167 1085.5,157.5C 1084.5,157.5 1083.5,157.5 1082.5,157.5C 1082.67,149.493 1082.5,141.493 1082,133.5C 1080.75,130.619 1078.58,128.786 1075.5,128C 1030.5,127.5 985.501,127.333 940.5,127.5C 940.5,126.167 940.5,124.833 940.5,123.5C 985.835,123.333 1031.17,123.5 1076.5,124C 1080.16,124.837 1083.16,126.67 1085.5,129.5 Z"/></g>
<g><path style="opacity:0.997" fill="#1a6c8e" d="M 255.5,124.5 C 255.5,126.833 255.5,129.167 255.5,131.5C 252.833,131.5 250.167,131.5 247.5,131.5C 247.333,147.17 247.5,162.837 248,178.5C 249.303,185.1 251.803,191.1 255.5,196.5C 255.5,206.5 255.5,216.5 255.5,226.5C 246.994,225.341 242.994,229.008 243.5,237.5C 239.5,237.5 235.5,237.5 231.5,237.5C 232.411,224.578 226.411,218.411 213.5,219C 211.114,220.193 208.78,221.36 206.5,222.5C 206.5,217.167 206.5,211.833 206.5,206.5C 212.223,199.054 216.39,190.721 219,181.5C 219.5,165.17 219.667,148.837 219.5,132.5C 216.482,132.665 213.482,132.498 210.5,132C 208.352,129.925 208.018,127.592 209.5,125C 224.83,124.5 240.163,124.333 255.5,124.5 Z"/></g>
<g><path style="opacity:1" fill="#58b2ba" d="M 940.5,127.5 C 938.14,129.853 935.473,131.853 932.5,133.5C 932.5,131.833 932.5,130.167 932.5,128.5C 934.882,125.138 937.549,124.805 940.5,127.5 Z"/></g>
<g><path style="opacity:1" fill="#eb6a5f" d="M 940.5,127.5 C 985.501,127.333 1030.5,127.5 1075.5,128C 1078.58,128.786 1080.75,130.619 1082,133.5C 1082.5,141.493 1082.67,149.493 1082.5,157.5C 1079.17,157.5 1075.83,157.5 1072.5,157.5C 1072.5,155.167 1072.5,152.833 1072.5,150.5C 1030.5,150.5 988.5,150.5 946.5,150.5C 946.5,152.833 946.5,155.167 946.5,157.5C 941.833,157.5 937.167,157.5 932.5,157.5C 932.5,149.5 932.5,141.5 932.5,133.5C 935.473,131.853 938.14,129.853 940.5,127.5 Z"/></g>
<g><path style="opacity:1" fill="#5350ae" d="M 538.5,140.5 C 537.778,140.082 537.278,139.416 537,138.5C 536.457,143.396 535.124,143.396 533,138.5C 532.023,140.74 531.523,143.073 531.5,145.5C 531.167,145.5 530.833,145.5 530.5,145.5C 530.5,138.833 530.5,132.167 530.5,125.5C 533.482,125.963 536.482,126.296 539.5,126.5C 538.771,131.13 538.437,135.797 538.5,140.5 Z"/></g>
<g><path style="opacity:1" fill="#403e51" d="M 575.5,157.5 C 574.167,157.5 572.833,157.5 571.5,157.5C 572.751,154.594 573.251,151.594 573,148.5C 571.213,151.363 569.713,154.363 568.5,157.5C 567.833,157.5 567.167,157.5 566.5,157.5C 566.491,155.692 566.991,154.025 568,152.5C 570.333,149.5 572.667,146.5 575,143.5C 575.667,142.5 575.667,141.5 575,140.5C 573.333,143.699 571.166,145.699 568.5,146.5C 570.524,144.31 572.357,141.977 574,139.5C 574.667,138.167 574.667,136.833 574,135.5C 569.6,139.967 565.934,144.967 563,150.5C 562.503,152.81 562.337,155.143 562.5,157.5C 561.5,157.5 560.5,157.5 559.5,157.5C 559.769,147.962 563.936,140.629 572,135.5C 573.127,132.623 573.794,129.623 574,126.5C 575.713,127.878 577.047,129.545 578,131.5C 579.135,140.392 578.302,149.058 575.5,157.5 Z"/></g>
<g><path style="opacity:0.983" fill="#eb8844" d="M 255.5,131.5 C 255.5,133.5 255.5,135.5 255.5,137.5C 254.5,137.5 253.5,137.5 252.5,137.5C 252.333,150.171 252.5,162.838 253,175.5C 253.204,178.797 254.037,181.797 255.5,184.5C 255.5,188.5 255.5,192.5 255.5,196.5C 251.803,191.1 249.303,185.1 248,178.5C 247.5,162.837 247.333,147.17 247.5,131.5C 250.167,131.5 252.833,131.5 255.5,131.5 Z"/></g>
<g><path style="opacity:0.991" fill="#e8a25f" d="M 859.5,135.5 C 858.5,135.5 857.5,135.5 856.5,135.5C 855.833,145.167 855.167,154.833 854.5,164.5C 854.5,164.167 854.5,163.833 854.5,163.5C 854.5,153.833 854.5,144.167 854.5,134.5C 856.415,134.216 858.081,134.549 859.5,135.5 Z"/></g>
<g><path style="opacity:1" fill="#d331c7" d="M 856.5,135.5 C 856.827,145.681 856.494,155.681 855.5,165.5C 854.833,165.5 854.5,165.167 854.5,164.5C 855.167,154.833 855.833,145.167 856.5,135.5 Z"/></g>
<g><path style="opacity:0.982" fill="#ca00f3" d="M 856.5,135.5 C 857.5,135.5 858.5,135.5 859.5,135.5C 859.5,146.5 859.5,157.5 859.5,168.5C 858.5,168.5 857.5,168.5 856.5,168.5C 855.89,167.609 855.557,166.609 855.5,165.5C 856.494,155.681 856.827,145.681 856.5,135.5 Z"/></g>
<g><path style="opacity:0.982" fill="#ce1fe6" d="M 818.5,163.5 C 817.833,165.5 817.167,167.5 816.5,169.5C 815.5,169.5 814.5,169.5 813.5,169.5C 813.5,158.167 813.5,146.833 813.5,135.5C 815.167,135.5 816.833,135.5 818.5,135.5C 818.5,144.833 818.5,154.167 818.5,163.5 Z"/></g>
<g><path style="opacity:1" fill="#d02ec4" d="M 859.5,135.5 C 860.495,146.654 860.828,157.988 860.5,169.5C 859.5,169.5 858.5,169.5 857.5,169.5C 856.833,169.5 856.5,169.167 856.5,168.5C 857.5,168.5 858.5,168.5 859.5,168.5C 859.5,157.5 859.5,146.5 859.5,135.5 Z"/></g>
<g><path style="opacity:1" fill="#176c8e" d="M 206.5,136.5 C 209.096,137.265 211.763,137.599 214.5,137.5C 214.667,152.17 214.5,166.837 214,181.5C 212.018,186.798 209.518,191.798 206.5,196.5C 206.5,176.5 206.5,156.5 206.5,136.5 Z"/></g>
<g><path style="opacity:0.8" fill="#356e88" d="M 255.5,137.5 C 255.5,153.167 255.5,168.833 255.5,184.5C 254.037,181.797 253.204,178.797 253,175.5C 252.5,162.838 252.333,150.171 252.5,137.5C 253.5,137.5 254.5,137.5 255.5,137.5 Z"/></g>
<g><path style="opacity:1" fill="#998083" d="M 538.5,140.5 C 538.443,141.609 538.11,142.609 537.5,143.5C 536.221,144.968 534.554,145.635 532.5,145.5C 532.167,145.5 531.833,145.5 531.5,145.5C 531.523,143.073 532.023,140.74 533,138.5C 535.124,143.396 536.457,143.396 537,138.5C 537.278,139.416 537.778,140.082 538.5,140.5 Z"/></g>
<g><path style="opacity:1" fill="#c3c3c5" d="M 533.5,146.5 C 534.5,146.5 535.5,146.5 536.5,146.5C 536.5,160.5 536.5,174.5 536.5,188.5C 536.167,188.5 535.833,188.5 535.5,188.5C 534.391,187.71 533.058,187.21 531.5,187C 532.75,173.586 533.417,160.086 533.5,146.5 Z"/></g>
<g><path style="opacity:1" fill="#4358d9" d="M 537.5,143.5 C 537.5,150.833 537.5,158.167 537.5,165.5C 538.5,165.5 539.5,165.5 540.5,165.5C 540.5,166.833 540.5,168.167 540.5,169.5C 539.5,169.5 538.5,169.5 537.5,169.5C 537.5,177.833 537.5,186.167 537.5,194.5C 537.5,194.833 537.5,195.167 537.5,195.5C 536.49,193.987 536.157,191.653 536.5,188.5C 536.5,174.5 536.5,160.5 536.5,146.5C 535.5,146.5 534.5,146.5 533.5,146.5C 532.833,146.5 532.5,146.167 532.5,145.5C 534.554,145.635 536.221,144.968 537.5,143.5 Z"/></g>
<g><path style="opacity:1" fill="#343f83" d="M 566.5,157.5 C 565.167,157.5 563.833,157.5 562.5,157.5C 562.337,155.143 562.503,152.81 563,150.5C 565.934,144.967 569.6,139.967 574,135.5C 574.667,136.833 574.667,138.167 574,139.5C 572.357,141.977 570.524,144.31 568.5,146.5C 571.166,145.699 573.333,143.699 575,140.5C 575.667,141.5 575.667,142.5 575,143.5C 572.667,146.5 570.333,149.5 568,152.5C 566.991,154.025 566.491,155.692 566.5,157.5 Z"/></g>
<g><path style="opacity:1" fill="#3ebbc5" d="M 1072.5,157.5 C 1070.83,157.5 1069.17,157.5 1067.5,157.5C 1067.5,156.5 1067.5,155.5 1067.5,154.5C 1028.5,154.5 989.5,154.5 950.5,154.5C 950.5,155.5 950.5,156.5 950.5,157.5C 949.167,157.5 947.833,157.5 946.5,157.5C 946.5,155.167 946.5,152.833 946.5,150.5C 988.5,150.5 1030.5,150.5 1072.5,150.5C 1072.5,152.833 1072.5,155.167 1072.5,157.5 Z"/></g>
<g><path style="opacity:1" fill="#dcc13e" d="M 68.5,159.5 C 68.5,161.833 68.5,164.167 68.5,166.5C 62.4833,161.264 55.4833,157.93 47.5,156.5C 47.5,154.833 47.5,153.167 47.5,151.5C 55.1241,152.596 62.1241,155.263 68.5,159.5 Z"/></g>
<g><path style="opacity:1" fill="#2c3d90" d="M 571.5,157.5 C 570.5,157.5 569.5,157.5 568.5,157.5C 569.713,154.363 571.213,151.363 573,148.5C 573.251,151.594 572.751,154.594 571.5,157.5 Z"/></g>
<g><path style="opacity:1" fill="#fe99fe" d="M 1067.5,157.5 C 1055.83,157.5 1044.17,157.5 1032.5,157.5C 1032.5,164.167 1032.5,170.833 1032.5,177.5C 1016.5,177.5 1000.5,177.5 984.5,177.5C 984.5,170.833 984.5,164.167 984.5,157.5C 973.167,157.5 961.833,157.5 950.5,157.5C 950.5,156.5 950.5,155.5 950.5,154.5C 989.5,154.5 1028.5,154.5 1067.5,154.5C 1067.5,155.5 1067.5,156.5 1067.5,157.5 Z"/></g>
<g><path style="opacity:0.984" fill="#3bbbc6" d="M 174.5,171.5 C 178.244,205.175 164.244,228.008 132.5,240C 146.273,265.045 160.44,289.879 175,314.5C 176.009,316.025 176.509,317.692 176.5,319.5C 158.164,319.667 139.83,319.5 121.5,319C 119.505,316.843 118.172,314.343 117.5,311.5C 117.666,303.16 117.5,294.827 117,286.5C 114.491,281.144 110.324,278.477 104.5,278.5C 104.5,260.167 104.5,241.833 104.5,223.5C 109.032,223.818 113.366,223.485 117.5,222.5C 117.5,215.833 117.5,209.167 117.5,202.5C 123.953,195.091 126.286,186.424 124.5,176.5C 124.923,165.605 130.423,159.272 141,157.5C 152.554,159.943 162.554,165.276 171,173.5C 172.113,172.695 173.279,172.028 174.5,171.5 Z"/></g>
<g><path style="opacity:1" fill="#707bd8" d="M 530.5,145.5 C 530.833,145.5 531.167,145.5 531.5,145.5C 531.833,145.5 532.167,145.5 532.5,145.5C 532.5,146.167 532.833,146.5 533.5,146.5C 533.417,160.086 532.75,173.586 531.5,187C 533.058,187.21 534.391,187.71 535.5,188.5C 532.833,188.5 530.167,188.5 527.5,188.5C 527.782,187.222 528.449,186.222 529.5,185.5C 527.612,183.012 526.945,180.012 527.5,176.5C 527.223,173.552 527.556,170.719 528.5,168C 527.263,167.768 526.263,167.268 525.5,166.5C 526.5,166.5 527.5,166.5 528.5,166.5C 528.5,165.5 528.5,164.5 528.5,163.5C 529.167,157.5 529.833,151.5 530.5,145.5 Z"/></g>
<g><path style="opacity:1" fill="#2c35e1" d="M 528.5,163.5 C 528.5,164.5 528.5,165.5 528.5,166.5C 527.5,166.5 526.5,166.5 525.5,166.5C 514.295,165.796 503.295,166.796 492.5,169.5C 492.5,168.167 492.5,166.833 492.5,165.5C 504.328,162.232 516.328,161.565 528.5,163.5 Z"/></g>
<g><path style="opacity:1" fill="#e7e9f5" d="M 529.5,185.5 C 529.962,172.812 530.795,160.145 532,147.5C 532.422,156.67 532.255,165.837 531.5,175C 531.488,178.902 530.821,182.402 529.5,185.5 Z"/></g>
<g><path style="opacity:1" fill="#3bbcc6" d="M 65.5,222.5 C 69.2984,223.483 73.2984,223.817 77.5,223.5C 77.5,230.167 77.5,236.833 77.5,243.5C 74.5,243.5 71.5,243.5 68.5,243.5C 68.5,256.5 68.5,269.5 68.5,282.5C 66.1703,284.542 65.0036,287.208 65,290.5C 64.5002,300.161 64.3335,309.828 64.5,319.5C 49.5,319.5 34.5,319.5 19.5,319.5C 19.5,271.167 19.5,222.833 19.5,174.5C 22.1873,174.664 24.854,174.497 27.5,174C 28.5,171.667 29.5,169.333 30.5,167C 48.198,165.764 59.698,173.597 65,190.5C 65.4998,201.161 65.6665,211.828 65.5,222.5 Z"/></g>
<g><path style="opacity:1" fill="#f08945" d="M 525.5,166.5 C 526.263,167.268 527.263,167.768 528.5,168C 527.556,170.719 527.223,173.552 527.5,176.5C 526.113,197.986 525.446,219.652 525.5,241.5C 515.841,245.16 513.008,251.827 517,261.5C 518.777,263.79 520.944,265.457 523.5,266.5C 525.117,267.972 527.117,268.639 529.5,268.5C 531.045,268.489 532.378,268.156 533.5,267.5C 535.98,266.758 538.313,265.758 540.5,264.5C 540.5,268.167 540.5,271.833 540.5,275.5C 537.994,276.75 535.327,277.416 532.5,277.5C 527.897,278.383 523.23,278.717 518.5,278.5C 513.015,277.507 508.515,274.841 505,270.5C 504,261.5 503,252.5 502,243.5C 499.889,239.554 496.722,236.887 492.5,235.5C 492.5,213.5 492.5,191.5 492.5,169.5C 503.295,166.796 514.295,165.796 525.5,166.5 Z"/></g>
<g><path style="opacity:1" fill="#d8c56b" d="M 509.5,172.5 C 510.097,171.861 510.93,171.528 512,171.5C 515.079,171.581 517.579,172.581 519.5,174.5C 509.4,174.761 505.567,179.761 508,189.5C 501.56,183.015 502.394,177.515 510.5,173C 510.272,172.601 509.938,172.435 509.5,172.5 Z"/></g>
<g><path style="opacity:1" fill="#f7cf0d" d="M 509.5,172.5 C 509.938,172.435 510.272,172.601 510.5,173C 502.394,177.515 501.56,183.015 508,189.5C 505.567,179.761 509.4,174.761 519.5,174.5C 523.498,179.828 523.498,185.161 519.5,190.5C 515.284,192.545 510.951,192.878 506.5,191.5C 505.833,190.167 504.833,189.167 503.5,188.5C 502.656,184.901 502.323,181.234 502.5,177.5C 503.967,174.71 506.3,173.044 509.5,172.5 Z"/></g>
<g><path style="opacity:1" fill="#3abcc6" d="M 984.5,177.5 C 1000.5,177.5 1016.5,177.5 1032.5,177.5C 1032.5,178.833 1032.5,180.167 1032.5,181.5C 1016.5,181.5 1000.5,181.5 984.5,181.5C 984.5,180.167 984.5,178.833 984.5,177.5 Z"/></g>
<g><path style="opacity:1" fill="#a77c6c" d="M 502.5,177.5 C 502.323,181.234 502.656,184.901 503.5,188.5C 501.544,186.968 500.544,184.801 500.5,182C 500.525,180.124 501.191,178.624 502.5,177.5 Z"/></g>
<g><path style="opacity:1" fill="#eb6a5e" d="M 984.5,181.5 C 1000.5,181.5 1016.5,181.5 1032.5,181.5C 1032.5,185.5 1032.5,189.5 1032.5,193.5C 1016.5,193.5 1000.5,193.5 984.5,193.5C 984.5,189.5 984.5,185.5 984.5,181.5 Z"/></g>
<g><path style="opacity:1" fill="#e08748" d="M 227.5,184.5 C 236.24,183.717 238.907,187.217 235.5,195C 227.685,197.522 224.518,194.689 226,186.5C 226.717,185.956 227.217,185.289 227.5,184.5 Z"/></g>
<g><path style="opacity:1" fill="#f09b2e" d="M 540.5,183.5 C 540.5,187.833 540.5,192.167 540.5,196.5C 539.391,196.443 538.391,196.11 537.5,195.5C 537.5,195.167 537.5,194.833 537.5,194.5C 538.376,194.631 539.043,194.298 539.5,193.5C 537.976,189.865 538.309,186.531 540.5,183.5 Z"/></g>
<g><path style="opacity:0.983" fill="#fec9ca" d="M 821.5,184.5 C 832.573,191.205 844.24,196.538 856.5,200.5C 855.252,201.334 854.585,202.667 854.5,204.5C 854.837,207.176 855.17,209.843 855.5,212.5C 855.963,215.482 856.296,218.482 856.5,221.5C 853.004,224.368 849.837,224.035 847,220.5C 845.598,221.645 844.431,222.978 843.5,224.5C 840.833,224.5 838.167,224.5 835.5,224.5C 835.631,223.761 835.464,223.094 835,222.5C 832.541,223.649 830.041,223.649 827.5,222.5C 826.947,220.343 825.947,220.51 824.5,223C 822.618,223.198 820.952,223.698 819.5,224.5C 818.167,224.5 816.833,224.5 815.5,224.5C 815.784,222.585 815.451,220.919 814.5,219.5C 814.328,218.508 814.662,217.842 815.5,217.5C 815.81,218.738 816.31,218.738 817,217.5C 817.333,219.167 817.667,220.833 818,222.5C 818.333,211.167 818.667,199.833 819,188.5C 819.608,186.934 820.442,185.6 821.5,184.5 Z"/></g>
<g><path style="opacity:1" fill="#2f6e89" d="M 228.5,187.5 C 233.123,186.408 234.956,188.075 234,192.5C 229.325,194.334 227.492,192.667 228.5,187.5 Z"/></g>
<g><path style="opacity:1" fill="#e59d49" d="M 527.5,188.5 C 530.167,188.5 532.833,188.5 535.5,188.5C 535.833,188.5 536.167,188.5 536.5,188.5C 536.157,191.653 536.49,193.987 537.5,195.5C 538.391,196.11 539.391,196.443 540.5,196.5C 540.5,200.5 540.5,204.5 540.5,208.5C 539.469,210.961 538.802,213.627 538.5,216.5C 537.4,218.277 536.566,220.277 536,222.5C 536.373,214.852 536.373,207.186 536,199.5C 534.724,213.81 533.89,228.143 533.5,242.5C 532.532,244.607 532.198,246.941 532.5,249.5C 532.5,252.833 532.5,256.167 532.5,259.5C 531.532,261.607 531.198,263.941 531.5,266.5C 529.5,266.5 527.5,266.5 525.5,266.5C 526.402,240.507 527.068,214.507 527.5,188.5 Z"/></g>
<g><path style="opacity:1" fill="#d2956f" d="M 540.5,169.5 C 540.5,174.167 540.5,178.833 540.5,183.5C 538.309,186.531 537.976,189.865 539.5,193.5C 539.043,194.298 538.376,194.631 537.5,194.5C 537.5,186.167 537.5,177.833 537.5,169.5C 538.5,169.5 539.5,169.5 540.5,169.5 Z"/></g>
<g><path style="opacity:0.983" fill="#dfc13a" d="M 68.5,184.5 C 67.8665,192.903 68.5332,200.903 70.5,208.5C 70.5,211.5 70.5,214.5 70.5,217.5C 84.5,217.5 98.5,217.5 112.5,217.5C 112.5,213.5 112.5,209.5 112.5,205.5C 114.411,204.925 116.078,203.925 117.5,202.5C 117.5,209.167 117.5,215.833 117.5,222.5C 112.833,222.5 108.167,222.5 103.5,222.5C 103.17,241.341 103.503,260.007 104.5,278.5C 110.324,278.477 114.491,281.144 117,286.5C 117.5,294.827 117.666,303.16 117.5,311.5C 115.076,308.992 113.41,305.992 112.5,302.5C 112.897,297.041 112.397,291.708 111,286.5C 108.358,283.971 105.192,282.971 101.5,283.5C 100.559,281.95 99.8925,280.284 99.5,278.5C 99.5,260.167 99.5,241.833 99.5,223.5C 94.1667,223.5 88.8333,223.5 83.5,223.5C 83.5,232.5 83.5,241.5 83.5,250.5C 82.0787,247.991 80.4121,245.657 78.5,243.5C 78.5,236.5 78.5,229.5 78.5,222.5C 74.1667,222.5 69.8333,222.5 65.5,222.5C 65.6665,211.828 65.4998,201.161 65,190.5C 59.698,173.597 48.198,165.764 30.5,167C 29.5,169.333 28.5,171.667 27.5,174C 24.854,174.497 22.1873,174.664 19.5,174.5C 19.5,172.833 19.5,171.167 19.5,169.5C 21.288,169.785 22.9547,169.452 24.5,168.5C 25.1228,166.289 26.1228,164.289 27.5,162.5C 46.8163,159.654 60.483,166.987 68.5,184.5 Z"/></g>
<g><path style="opacity:1" fill="#e577bc" d="M 819.5,182.5 C 820.5,182.833 821.167,183.5 821.5,184.5C 820.442,185.6 819.608,186.934 819,188.5C 818.667,199.833 818.333,211.167 818,222.5C 817.667,220.833 817.333,219.167 817,217.5C 816.31,218.738 815.81,218.738 815.5,217.5C 816.729,214.865 816.729,212.199 815.5,209.5C 814.583,210.127 813.583,210.461 812.5,210.5C 813.287,208.896 814.62,208.229 816.5,208.5C 816.334,202.158 816.5,195.825 817,189.5C 818.411,187.35 819.245,185.016 819.5,182.5 Z"/></g>
<g><path style="opacity:1" fill="#9c7875" d="M 519.5,190.5 C 517.668,192.894 515.168,193.894 512,193.5C 510.5,193.333 509,193.167 507.5,193C 506.944,192.617 506.611,192.117 506.5,191.5C 510.951,192.878 515.284,192.545 519.5,190.5 Z"/></g>
<g><path style="opacity:1" fill="#3abcc6" d="M 984.5,193.5 C 1000.5,193.5 1016.5,193.5 1032.5,193.5C 1032.5,194.833 1032.5,196.167 1032.5,197.5C 1016.5,197.5 1000.5,197.5 984.5,197.5C 984.5,196.167 984.5,194.833 984.5,193.5 Z"/></g>
<g><path style="opacity:1" fill="#f8f2f6" d="M 705.5,197.5 C 709.833,197.5 714.167,197.5 718.5,197.5C 695.106,206.302 671.439,214.802 647.5,223C 657.099,225.817 666.766,228.484 676.5,231C 678.925,232.213 681.259,233.379 683.5,234.5C 679.167,234.5 674.833,234.5 670.5,234.5C 653.008,228.563 635.008,225.563 616.5,225.5C 616.5,224.167 616.5,222.833 616.5,221.5C 624.808,220.795 633.141,220.295 641.5,220C 662.943,212.355 684.276,204.855 705.5,197.5 Z"/></g>
<g><path style="opacity:1" fill="#9b3e85" d="M 718.5,197.5 C 722.167,197.5 725.833,197.5 729.5,197.5C 729.5,209.833 729.5,222.167 729.5,234.5C 714.167,234.5 698.833,234.5 683.5,234.5C 681.259,233.379 678.925,232.213 676.5,231C 666.766,228.484 657.099,225.817 647.5,223C 671.439,214.802 695.106,206.302 718.5,197.5 Z"/></g>
<g><path style="opacity:1" fill="#e46e63" d="M 984.5,197.5 C 1000.5,197.5 1016.5,197.5 1032.5,197.5C 1032.5,199.5 1032.5,201.5 1032.5,203.5C 1016.5,203.5 1000.5,203.5 984.5,203.5C 984.5,201.5 984.5,199.5 984.5,197.5 Z"/></g>
<g><path style="opacity:0.924" fill="#f7b1c0" d="M 856.5,200.5 C 858.833,201.167 861.167,201.833 863.5,202.5C 863.323,206.234 863.656,209.901 864.5,213.5C 863.038,212.542 861.705,211.376 860.5,210C 859.207,209.51 857.873,209.343 856.5,209.5C 856.5,206.5 856.5,203.5 856.5,200.5 Z"/></g>
<g><path style="opacity:0.944" fill="#e7bf35" d="M 863.5,202.5 C 877.963,207.013 890.629,214.346 901.5,224.5C 890.167,224.5 878.833,224.5 867.5,224.5C 867.664,221.813 867.497,219.146 867,216.5C 866.623,215.058 865.79,214.058 864.5,213.5C 863.656,209.901 863.323,206.234 863.5,202.5 Z"/></g>
<g><path style="opacity:1" fill="#51b3bc" d="M 984.5,203.5 C 1000.5,203.5 1016.5,203.5 1032.5,203.5C 1032.5,204.833 1032.5,206.167 1032.5,207.5C 1016.5,207.5 1000.5,207.5 984.5,207.5C 984.5,206.167 984.5,204.833 984.5,203.5 Z"/></g>
<g><path style="opacity:0.979" fill="#3abbc6" d="M 112.5,205.5 C 112.5,209.5 112.5,213.5 112.5,217.5C 98.5,217.5 84.5,217.5 70.5,217.5C 70.5,214.5 70.5,211.5 70.5,208.5C 79.5062,208.666 88.5062,208.5 97.5,208C 102.68,207.912 107.68,207.079 112.5,205.5 Z"/></g>
<g><path style="opacity:1" fill="#da864a" d="M 246.5,207.5 C 253.821,208.319 255.154,211.486 250.5,217C 243.075,216.484 241.742,213.318 246.5,207.5 Z"/></g>
<g><path style="opacity:1" fill="#e96b60" d="M 984.5,207.5 C 1000.5,207.5 1016.5,207.5 1032.5,207.5C 1032.5,216.167 1032.5,224.833 1032.5,233.5C 1031.75,237.852 1031.09,242.352 1030.5,247C 1030.84,248.03 1031.5,248.53 1032.5,248.5C 1032.5,256.167 1032.5,263.833 1032.5,271.5C 1031.75,275.852 1031.09,280.352 1030.5,285C 1030.84,286.03 1031.5,286.53 1032.5,286.5C 1032.5,290.167 1032.5,293.833 1032.5,297.5C 1030.54,303.412 1029.88,309.745 1030.5,316.5C 1027.17,316.5 1023.83,316.5 1020.5,316.5C 1020.5,310.167 1020.5,303.833 1020.5,297.5C 1011.5,297.5 1002.5,297.5 993.5,297.5C 993.5,303.833 993.5,310.167 993.5,316.5C 991.167,316.5 988.833,316.5 986.5,316.5C 987.123,309.745 986.456,303.412 984.5,297.5C 984.5,293.833 984.5,290.167 984.5,286.5C 985.825,282.555 986.492,278.222 986.5,273.5C 986.492,268.778 985.825,264.445 984.5,260.5C 984.5,252.833 984.5,245.167 984.5,237.5C 985.273,232.99 985.94,228.324 986.5,223.5C 986.253,222.287 985.586,221.62 984.5,221.5C 984.5,216.833 984.5,212.167 984.5,207.5 Z"/></g>
<g><path style="opacity:1" fill="#efc241" d="M 815.5,217.5 C 814.662,217.842 814.328,218.508 814.5,219.5C 814.5,221.167 814.5,222.833 814.5,224.5C 812.5,224.5 810.5,224.5 808.5,224.5C 808.337,222.143 808.503,219.81 809,217.5C 810.193,215.114 811.36,212.78 812.5,210.5C 813.583,210.461 814.583,210.127 815.5,209.5C 816.729,212.199 816.729,214.865 815.5,217.5 Z"/></g>
<g><path style="opacity:1" fill="#da42e4" d="M 856.5,200.5 C 856.5,203.5 856.5,206.5 856.5,209.5C 856.5,210.5 856.5,211.5 856.5,212.5C 856.167,212.5 855.833,212.5 855.5,212.5C 855.17,209.843 854.837,207.176 854.5,204.5C 854.585,202.667 855.252,201.334 856.5,200.5 Z"/></g>
<g><path style="opacity:1" fill="#efc241" d="M 856.5,209.5 C 857.873,209.343 859.207,209.51 860.5,210C 861.705,211.376 863.038,212.542 864.5,213.5C 864.674,215.861 865.007,218.194 865.5,220.5C 865.5,221.833 865.5,223.167 865.5,224.5C 863.5,224.5 861.5,224.5 859.5,224.5C 859.664,221.813 859.497,219.146 859,216.5C 857.519,215.529 856.685,214.196 856.5,212.5C 856.5,211.5 856.5,210.5 856.5,209.5 Z"/></g>
<g><path style="opacity:1" fill="#3c7083" d="M 247.5,210.5 C 250.861,211.203 251.194,212.537 248.5,214.5C 246.358,213.563 246.024,212.23 247.5,210.5 Z"/></g>
<g><path style="opacity:1" fill="#9f7d99" d="M 540.5,208.5 C 540.5,210.5 540.5,212.5 540.5,214.5C 539.833,215.167 539.167,215.833 538.5,216.5C 538.802,213.627 539.469,210.961 540.5,208.5 Z"/></g>
<g><path style="opacity:1" fill="#de7583" d="M 812.5,210.5 C 811.36,212.78 810.193,215.114 809,217.5C 808.503,219.81 808.337,222.143 808.5,224.5C 808.167,224.5 807.833,224.5 807.5,224.5C 806.448,218.743 808.115,214.076 812.5,210.5 Z"/></g>
<g><path style="opacity:1" fill="#f5c389" d="M 540.5,214.5 C 540.5,223.833 540.5,233.167 540.5,242.5C 538.399,245.797 537.065,249.463 536.5,253.5C 536.204,255.403 535.537,257.07 534.5,258.5C 533.833,255.5 533.167,252.5 532.5,249.5C 532.198,246.941 532.532,244.607 533.5,242.5C 534.542,235.028 536.209,226.361 538.5,216.5C 539.167,215.833 539.833,215.167 540.5,214.5 Z"/></g>
<g><path style="opacity:0.999" fill="#e28747" d="M 255.5,226.5 C 255.5,227.5 255.5,228.5 255.5,229.5C 247.395,228.56 245.062,231.727 248.5,239C 241.842,239.5 235.175,239.666 228.5,239.5C 230.815,227.318 225.815,221.485 213.5,222C 210.734,223.371 208.401,225.204 206.5,227.5C 206.5,225.833 206.5,224.167 206.5,222.5C 208.78,221.36 211.114,220.193 213.5,219C 226.411,218.411 232.411,224.578 231.5,237.5C 235.5,237.5 239.5,237.5 243.5,237.5C 242.994,229.008 246.994,225.341 255.5,226.5 Z"/></g>
<g><path style="opacity:1" fill="#e6b343" d="M 858.5,224.5 C 857.5,224.5 856.5,224.5 855.5,224.5C 856.11,223.609 856.443,222.609 856.5,221.5C 857.29,220.391 857.79,219.058 858,217.5C 858.497,219.81 858.663,222.143 858.5,224.5 Z"/></g>
<g><path style="opacity:1" fill="#da5da2" d="M 855.5,212.5 C 855.833,212.5 856.167,212.5 856.5,212.5C 856.685,214.196 857.519,215.529 859,216.5C 859.497,219.146 859.664,221.813 859.5,224.5C 859.167,224.5 858.833,224.5 858.5,224.5C 858.663,222.143 858.497,219.81 858,217.5C 857.79,219.058 857.29,220.391 856.5,221.5C 856.296,218.482 855.963,215.482 855.5,212.5 Z"/></g>
<g><path style="opacity:1" fill="#de7680" d="M 864.5,213.5 C 865.79,214.058 866.623,215.058 867,216.5C 867.497,219.146 867.664,221.813 867.5,224.5C 866.833,223.167 866.167,221.833 865.5,220.5C 865.007,218.194 864.674,215.861 864.5,213.5 Z"/></g>
<g><path style="opacity:0.998" fill="#166c8f" d="M 255.5,229.5 C 255.5,239.5 255.5,249.5 255.5,259.5C 248.954,255.649 244.954,257.482 243.5,265C 245.339,271.26 249.339,273.094 255.5,270.5C 255.5,275.833 255.5,281.167 255.5,286.5C 239.167,286.5 222.833,286.5 206.5,286.5C 206.5,266.833 206.5,247.167 206.5,227.5C 208.401,225.204 210.734,223.371 213.5,222C 225.815,221.485 230.815,227.318 228.5,239.5C 235.175,239.666 241.842,239.5 248.5,239C 245.062,231.727 247.395,228.56 255.5,229.5 Z"/></g>
<g><path style="opacity:1" fill="#7a66a9" d="M 538.5,216.5 C 536.209,226.361 534.542,235.028 533.5,242.5C 533.89,228.143 534.724,213.81 536,199.5C 536.373,207.186 536.373,214.852 536,222.5C 536.566,220.277 537.4,218.277 538.5,216.5 Z"/></g>
<g><path style="opacity:1" fill="#de5bc7" d="M 827.5,222.5 C 830.041,223.649 832.541,223.649 835,222.5C 835.464,223.094 835.631,223.761 835.5,224.5C 830.157,225.704 824.824,225.704 819.5,224.5C 820.952,223.698 822.618,223.198 824.5,223C 825.947,220.51 826.947,220.343 827.5,222.5 Z"/></g>
<g><path style="opacity:1" fill="#e29c59" d="M 827.5,222.5 C 828.614,224.353 827.948,224.853 825.5,224C 826.044,223.283 826.711,222.783 827.5,222.5 Z"/></g>
<g><path style="opacity:1" fill="#e46fc7" d="M 856.5,221.5 C 856.443,222.609 856.11,223.609 855.5,224.5C 853.167,224.5 850.833,224.5 848.5,224.5C 847.5,221.833 846.5,221.833 845.5,224.5C 844.833,224.5 844.167,224.5 843.5,224.5C 844.431,222.978 845.598,221.645 847,220.5C 849.837,224.035 853.004,224.368 856.5,221.5 Z"/></g>
<g><path style="opacity:1" fill="#e2a054" d="M 848.5,224.5 C 847.5,224.5 846.5,224.5 845.5,224.5C 846.5,221.833 847.5,221.833 848.5,224.5 Z"/></g>
<g><path style="opacity:1" fill="#68abb1" d="M 984.5,221.5 C 985.586,221.62 986.253,222.287 986.5,223.5C 985.94,228.324 985.273,232.99 984.5,237.5C 984.5,232.167 984.5,226.833 984.5,221.5 Z"/></g>
<g><path style="opacity:1" fill="#4bb6bf" d="M 996.5,221.5 C 1004.5,221.5 1012.5,221.5 1020.5,221.5C 1020.5,230.5 1020.5,239.5 1020.5,248.5C 1012.5,248.5 1004.5,248.5 996.5,248.5C 996.5,239.5 996.5,230.5 996.5,221.5 Z"/></g>
<g><path style="opacity:1" fill="#71bd9a" d="M 65.5,222.5 C 69.8333,222.5 74.1667,222.5 78.5,222.5C 78.5,229.5 78.5,236.5 78.5,243.5C 78.1667,243.5 77.8333,243.5 77.5,243.5C 77.5,236.833 77.5,230.167 77.5,223.5C 73.2984,223.817 69.2984,223.483 65.5,222.5 Z"/></g>
<g><path style="opacity:0.969" fill="#41bcc2" d="M 99.5,278.5 C 93.6761,269.528 88.3428,260.194 83.5,250.5C 83.5,241.5 83.5,232.5 83.5,223.5C 88.8333,223.5 94.1667,223.5 99.5,223.5C 99.5,241.833 99.5,260.167 99.5,278.5 Z"/></g>
<g><path style="opacity:1" fill="#b3bf5f" d="M 117.5,222.5 C 113.366,223.485 109.032,223.818 104.5,223.5C 104.5,241.833 104.5,260.167 104.5,278.5C 103.503,260.007 103.17,241.341 103.5,222.5C 108.167,222.5 112.833,222.5 117.5,222.5 Z"/></g>
<g><path style="opacity:0.989" fill="#d131c3" d="M 865.5,220.5 C 866.167,221.833 866.833,223.167 867.5,224.5C 878.833,224.5 890.167,224.5 901.5,224.5C 901.5,224.833 901.5,225.167 901.5,225.5C 887.323,225.829 873.323,225.496 859.5,224.5C 861.5,224.5 863.5,224.5 865.5,224.5C 865.5,223.167 865.5,221.833 865.5,220.5 Z"/></g>
<g><path style="opacity:1" fill="#9a689a" d="M 616.5,225.5 C 635.008,225.563 653.008,228.563 670.5,234.5C 668.833,234.5 667.167,234.5 665.5,234.5C 665.5,237.833 665.5,241.167 665.5,244.5C 662.15,244.665 658.817,244.498 655.5,244C 649.047,241.553 642.38,240.053 635.5,239.5C 631.078,258.349 625.912,277.015 620,295.5C 618.887,296.305 617.721,296.972 616.5,297.5C 616.5,273.5 616.5,249.5 616.5,225.5 Z"/></g>
<g><path style="opacity:0.982" fill="#cc11e9" d="M 814.5,219.5 C 815.451,220.919 815.784,222.585 815.5,224.5C 816.833,224.5 818.167,224.5 819.5,224.5C 824.824,225.704 830.157,225.704 835.5,224.5C 838.167,224.5 840.833,224.5 843.5,224.5C 844.167,224.5 844.833,224.5 845.5,224.5C 846.5,224.5 847.5,224.5 848.5,224.5C 850.833,224.5 853.167,224.5 855.5,224.5C 856.5,224.5 857.5,224.5 858.5,224.5C 858.833,224.5 859.167,224.5 859.5,224.5C 873.323,225.496 887.323,225.829 901.5,225.5C 903.262,226.262 904.262,227.596 904.5,229.5C 873.5,229.5 842.5,229.5 811.5,229.5C 807.203,228.345 803.203,226.679 799.5,224.5C 802.167,224.5 804.833,224.5 807.5,224.5C 807.833,224.5 808.167,224.5 808.5,224.5C 810.5,224.5 812.5,224.5 814.5,224.5C 814.5,222.833 814.5,221.167 814.5,219.5 Z"/></g>
<g><path style="opacity:1" fill="#e66d62" d="M 1000.5,226.5 C 1005.5,226.5 1010.5,226.5 1015.5,226.5C 1015.5,232.5 1015.5,238.5 1015.5,244.5C 1010.5,244.5 1005.5,244.5 1000.5,244.5C 1000.5,238.5 1000.5,232.5 1000.5,226.5 Z"/></g>
<g><path style="opacity:0.982" fill="#f0c73c" d="M 811.5,229.5 C 842.5,229.5 873.5,229.5 904.5,229.5C 907.786,232.805 909.786,236.805 910.5,241.5C 910.5,252.833 910.5,264.167 910.5,275.5C 910.095,278.715 909.095,281.715 907.5,284.5C 906.833,284.5 906.167,284.5 905.5,284.5C 887.5,284.5 869.5,284.5 851.5,284.5C 851.784,282.585 851.451,280.919 850.5,279.5C 847.833,279.5 845.167,279.5 842.5,279.5C 859.636,276.885 865.136,267.552 859,251.5C 854.785,246.639 849.618,243.139 843.5,241C 832.638,237.388 821.971,233.555 811.5,229.5 Z"/></g>
<g><path style="opacity:1" fill="#2935e2" d="M 492.5,235.5 C 496.722,236.887 499.889,239.554 502,243.5C 503,252.5 504,261.5 505,270.5C 508.515,274.841 513.015,277.507 518.5,278.5C 518.5,278.833 518.5,279.167 518.5,279.5C 517.167,279.5 515.833,279.5 514.5,279.5C 509.427,277.869 505.261,274.869 502,270.5C 500.93,262.21 499.93,253.876 499,245.5C 497.549,242.697 495.382,240.697 492.5,239.5C 492.5,238.167 492.5,236.833 492.5,235.5 Z"/></g>
<g><path style="opacity:1" fill="#f8f2f7" d="M 665.5,244.5 C 665.5,246.167 665.5,247.833 665.5,249.5C 657.748,249.157 650.081,248.157 642.5,246.5C 641.5,246.833 640.5,247.167 639.5,247.5C 634.488,264.563 629.654,281.563 625,298.5C 626.808,300.396 628.975,300.896 631.5,300C 633.684,297.984 635.684,295.817 637.5,293.5C 640.833,283.833 644.167,274.167 647.5,264.5C 648.689,263.571 650.022,263.238 651.5,263.5C 648.883,273.903 645.883,284.237 642.5,294.5C 642.899,297.065 644.399,298.399 647,298.5C 649.599,297.569 651.599,295.902 653,293.5C 656.2,285.566 659.2,277.566 662,269.5C 662.498,267.456 663.665,266.122 665.5,265.5C 665.5,269.167 665.5,272.833 665.5,276.5C 663.079,281.855 660.746,287.355 658.5,293C 658.601,295.601 659.935,297.101 662.5,297.5C 665.713,295.64 668.879,293.64 672,291.5C 673.742,286.77 675.575,282.103 677.5,277.5C 679.167,277.5 680.833,277.5 682.5,277.5C 680.932,282.038 679.265,286.538 677.5,291C 678.108,291.87 678.941,292.37 680,292.5C 688.717,289.6 695.884,284.6 701.5,277.5C 703.833,277.5 706.167,277.5 708.5,277.5C 701.889,284.941 694.222,291.108 685.5,296C 681.167,296.333 676.833,296.667 672.5,297C 668.6,300.956 663.933,302.623 658.5,302C 657.601,300.764 656.434,299.93 655,299.5C 649.727,304.692 644.394,304.692 639,299.5C 633.611,306.558 627.611,307.224 621,301.5C 619.56,302.148 618.06,302.481 616.5,302.5C 616.5,300.833 616.5,299.167 616.5,297.5C 617.721,296.972 618.887,296.305 620,295.5C 625.912,277.015 631.078,258.349 635.5,239.5C 642.38,240.053 649.047,241.553 655.5,244C 658.817,244.498 662.15,244.665 665.5,244.5 Z"/></g>
<g><path style="opacity:1" fill="#ef8843" d="M 492.5,239.5 C 495.382,240.697 497.549,242.697 499,245.5C 499.93,253.876 500.93,262.21 502,270.5C 505.261,274.869 509.427,277.869 514.5,279.5C 515.263,280.268 516.263,280.768 517.5,281C 516.62,282.356 516.286,283.856 516.5,285.5C 514.108,289.081 513.275,293.081 514,297.5C 515.616,298.801 517.116,298.801 518.5,297.5C 518.5,296.833 518.833,296.5 519.5,296.5C 521.585,294.316 522.585,291.649 522.5,288.5C 522.383,297.723 522.716,307.056 523.5,316.5C 513.167,316.5 502.833,316.5 492.5,316.5C 492.5,290.833 492.5,265.167 492.5,239.5 Z"/></g>
<g><path style="opacity:1" fill="#393ad9" d="M 525.5,241.5 C 525.635,243.554 524.968,245.221 523.5,246.5C 518.811,249.988 517.311,254.655 519,260.5C 519.7,262.032 520.866,263.032 522.5,263.5C 523.386,264.325 523.719,265.325 523.5,266.5C 520.944,265.457 518.777,263.79 517,261.5C 513.008,251.827 515.841,245.16 525.5,241.5 Z"/></g>
<g><path style="opacity:0.802" fill="#c900f4" d="M 910.5,241.5 C 912.865,246.793 913.865,252.46 913.5,258.5C 913.865,264.54 912.865,270.207 910.5,275.5C 910.5,264.167 910.5,252.833 910.5,241.5 Z"/></g>
<g><path style="opacity:1" fill="#5cafb7" d="M 1032.5,233.5 C 1032.5,238.5 1032.5,243.5 1032.5,248.5C 1031.5,248.53 1030.84,248.03 1030.5,247C 1031.09,242.352 1031.75,237.852 1032.5,233.5 Z"/></g>
<g><path style="opacity:1" fill="#987297" d="M 540.5,242.5 C 540.5,243.833 540.5,245.167 540.5,246.5C 539.167,248.833 537.833,251.167 536.5,253.5C 537.065,249.463 538.399,245.797 540.5,242.5 Z"/></g>
<g><path style="opacity:1" fill="#e8874d" d="M 523.5,246.5 C 524.461,253.255 524.461,259.922 523.5,266.5C 523.719,265.325 523.386,264.325 522.5,263.5C 520.866,263.032 519.7,262.032 519,260.5C 517.311,254.655 518.811,249.988 523.5,246.5 Z"/></g>
<g><path style="opacity:1" fill="#9c4187" d="M 665.5,249.5 C 665.5,254.833 665.5,260.167 665.5,265.5C 663.665,266.122 662.498,267.456 662,269.5C 659.2,277.566 656.2,285.566 653,293.5C 651.599,295.902 649.599,297.569 647,298.5C 644.399,298.399 642.899,297.065 642.5,294.5C 645.883,284.237 648.883,273.903 651.5,263.5C 650.022,263.238 648.689,263.571 647.5,264.5C 644.167,274.167 640.833,283.833 637.5,293.5C 635.684,295.817 633.684,297.984 631.5,300C 628.975,300.896 626.808,300.396 625,298.5C 629.654,281.563 634.488,264.563 639.5,247.5C 640.5,247.167 641.5,246.833 642.5,246.5C 650.081,248.157 657.748,249.157 665.5,249.5 Z"/></g>
<g><path style="opacity:1" fill="#eb8646" d="M 540.5,246.5 C 540.5,251.833 540.5,257.167 540.5,262.5C 538.833,263.167 537.167,263.833 535.5,264.5C 534.508,264.672 533.842,264.338 533.5,263.5C 533.629,261.784 533.962,260.117 534.5,258.5C 535.537,257.07 536.204,255.403 536.5,253.5C 537.833,251.167 539.167,248.833 540.5,246.5 Z"/></g>
<g><path style="opacity:1" fill="#8c6890" d="M 527.5,176.5 C 526.945,180.012 527.612,183.012 529.5,185.5C 528.449,186.222 527.782,187.222 527.5,188.5C 527.068,214.507 526.402,240.507 525.5,266.5C 527.5,266.5 529.5,266.5 531.5,266.5C 531.198,263.941 531.532,261.607 532.5,259.5C 532.232,261.099 532.566,262.432 533.5,263.5C 533.842,264.338 534.508,264.672 535.5,264.5C 534.602,265.158 533.602,265.824 532.5,266.5C 532.624,267.107 532.957,267.44 533.5,267.5C 532.378,268.156 531.045,268.489 529.5,268.5C 527.117,268.639 525.117,267.972 523.5,266.5C 524.461,259.922 524.461,253.255 523.5,246.5C 524.968,245.221 525.635,243.554 525.5,241.5C 525.446,219.652 526.113,197.986 527.5,176.5 Z"/></g>
<g><path style="opacity:1" fill="#5457c2" d="M 532.5,249.5 C 533.167,252.5 533.833,255.5 534.5,258.5C 533.962,260.117 533.629,261.784 533.5,263.5C 532.566,262.432 532.232,261.099 532.5,259.5C 532.5,256.167 532.5,252.833 532.5,249.5 Z"/></g>
<g><path style="opacity:0.98" fill="#f0c73c" d="M 838.5,279.5 C 833.5,279.5 828.5,279.5 823.5,279.5C 823.5,281.167 823.5,282.833 823.5,284.5C 806.167,284.5 788.833,284.5 771.5,284.5C 770.21,283.942 769.377,282.942 769,281.5C 766.082,273.74 764.248,265.74 763.5,257.5C 780.837,257.333 798.17,257.5 815.5,258C 817.662,271.336 825.328,278.503 838.5,279.5 Z"/></g>
<g><path style="opacity:0.986" fill="#e28747" d="M 255.5,259.5 C 255.5,260.5 255.5,261.5 255.5,262.5C 249.358,258.749 246.525,260.416 247,267.5C 250.117,270.185 252.95,269.852 255.5,266.5C 255.5,267.833 255.5,269.167 255.5,270.5C 249.339,273.094 245.339,271.26 243.5,265C 244.954,257.482 248.954,255.649 255.5,259.5 Z"/></g>
<g><path style="opacity:1" fill="#7aa1a5" d="M 984.5,260.5 C 985.825,264.445 986.492,268.778 986.5,273.5C 986.492,278.222 985.825,282.555 984.5,286.5C 984.5,277.833 984.5,269.167 984.5,260.5 Z"/></g>
<g><path style="opacity:1" fill="#8a9899" d="M 1022.5,286.5 C 1022.5,277.833 1022.5,269.167 1022.5,260.5C 1013.17,260.5 1003.83,260.5 994.5,260.5C 994.5,269.167 994.5,277.833 994.5,286.5C 993.507,277.682 993.173,268.682 993.5,259.5C 1003.5,259.5 1013.5,259.5 1023.5,259.5C 1023.83,268.682 1023.49,277.682 1022.5,286.5 Z"/></g>
<g><path style="opacity:1" fill="#3dbac5" d="M 1022.5,286.5 C 1013.17,286.5 1003.83,286.5 994.5,286.5C 994.5,277.833 994.5,269.167 994.5,260.5C 1003.83,260.5 1013.17,260.5 1022.5,260.5C 1022.5,269.167 1022.5,277.833 1022.5,286.5 Z"/></g>
<g><path style="opacity:1" fill="#3e6f86" d="M 255.5,262.5 C 255.5,263.833 255.5,265.167 255.5,266.5C 252.95,269.852 250.117,270.185 247,267.5C 246.525,260.416 249.358,258.749 255.5,262.5 Z"/></g>
<g><path style="opacity:1" fill="#a68a87" d="M 997.5,263.5 C 1004.83,263.5 1012.17,263.5 1019.5,263.5C 1019.5,269.833 1019.5,276.167 1019.5,282.5C 1012.17,282.5 1004.83,282.5 997.5,282.5C 997.5,276.167 997.5,269.833 997.5,263.5 Z"/></g>
<g><path style="opacity:1" fill="#eb6a5e" d="M 998.5,264.5 C 1005.17,264.5 1011.83,264.5 1018.5,264.5C 1018.5,270.167 1018.5,275.833 1018.5,281.5C 1011.83,281.5 1005.17,281.5 998.5,281.5C 998.5,275.833 998.5,270.167 998.5,264.5 Z"/></g>
<g><path style="opacity:1" fill="#313ad8" d="M 540.5,262.5 C 540.5,263.167 540.5,263.833 540.5,264.5C 538.313,265.758 535.98,266.758 533.5,267.5C 532.957,267.44 532.624,267.107 532.5,266.5C 533.602,265.824 534.602,265.158 535.5,264.5C 537.167,263.833 538.833,263.167 540.5,262.5 Z"/></g>
<g><path style="opacity:1" fill="#9d4388" d="M 665.5,276.5 C 669.298,277.483 673.298,277.817 677.5,277.5C 675.575,282.103 673.742,286.77 672,291.5C 668.879,293.64 665.713,295.64 662.5,297.5C 659.935,297.101 658.601,295.601 658.5,293C 660.746,287.355 663.079,281.855 665.5,276.5 Z"/></g>
<g><path style="opacity:1" fill="#9d4388" d="M 682.5,277.5 C 688.833,277.5 695.167,277.5 701.5,277.5C 695.884,284.6 688.717,289.6 680,292.5C 678.941,292.37 678.108,291.87 677.5,291C 679.265,286.538 680.932,282.038 682.5,277.5 Z"/></g>
<g><path style="opacity:1" fill="#9d3b82" d="M 708.5,277.5 C 718.167,277.5 727.833,277.5 737.5,277.5C 737.5,290.5 737.5,303.5 737.5,316.5C 697.167,316.5 656.833,316.5 616.5,316.5C 616.5,311.833 616.5,307.167 616.5,302.5C 618.06,302.481 619.56,302.148 621,301.5C 627.611,307.224 633.611,306.558 639,299.5C 644.394,304.692 649.727,304.692 655,299.5C 656.434,299.93 657.601,300.764 658.5,302C 663.933,302.623 668.6,300.956 672.5,297C 676.833,296.667 681.167,296.333 685.5,296C 694.222,291.108 701.889,284.941 708.5,277.5 Z"/></g>
<g><path style="opacity:1" fill="#3538dc" d="M 540.5,275.5 C 540.5,276.5 540.5,277.5 540.5,278.5C 537.779,278.963 535.112,279.629 532.5,280.5C 531.375,279.652 531.375,278.652 532.5,277.5C 535.327,277.416 537.994,276.75 540.5,275.5 Z"/></g>
<g><path style="opacity:1" fill="#fbc887" d="M 518.5,279.5 C 520.167,279.5 521.833,279.5 523.5,279.5C 523.492,282.545 523.159,285.545 522.5,288.5C 520.733,290.792 519.733,293.458 519.5,296.5C 518.833,296.5 518.5,296.833 518.5,297.5C 516.052,297.915 514.719,296.915 514.5,294.5C 515.328,291.521 515.995,288.521 516.5,285.5C 517.738,283.786 518.405,281.786 518.5,279.5 Z"/></g>
<g><path style="opacity:1" fill="#e39f49" d="M 530.5,291.5 C 529.539,293.265 529.205,295.265 529.5,297.5C 529.593,303.863 529.26,310.196 528.5,316.5C 527.167,316.5 525.833,316.5 524.5,316.5C 524.333,304.495 524.5,292.495 525,280.5C 526.699,279.594 528.533,279.261 530.5,279.5C 530.5,283.5 530.5,287.5 530.5,291.5 Z"/></g>
<g><path style="opacity:1" fill="#ec8744" d="M 540.5,278.5 C 540.5,290.167 540.5,301.833 540.5,313.5C 538.326,313.75 536.659,314.75 535.5,316.5C 533.5,316.5 531.5,316.5 529.5,316.5C 530.807,310.068 530.807,303.734 529.5,297.5C 529.205,295.265 529.539,293.265 530.5,291.5C 530.351,292.552 530.517,293.552 531,294.5C 531.435,289.816 531.935,285.149 532.5,280.5C 535.112,279.629 537.779,278.963 540.5,278.5 Z"/></g>
<g><path style="opacity:1" fill="#d15b8a" d="M 838.5,279.5 C 839.833,279.5 841.167,279.5 842.5,279.5C 845.167,279.5 847.833,279.5 850.5,279.5C 850.672,280.492 850.338,281.158 849.5,281.5C 841.677,280.344 833.677,280.177 825.5,281C 824.62,282.356 824.286,283.856 824.5,285.5C 806.833,285.5 789.167,285.5 771.5,285.5C 771.5,285.167 771.5,284.833 771.5,284.5C 788.833,284.5 806.167,284.5 823.5,284.5C 823.5,282.833 823.5,281.167 823.5,279.5C 828.5,279.5 833.5,279.5 838.5,279.5 Z"/></g>
<g><path style="opacity:1" fill="#9575a1" d="M 514.5,279.5 C 515.833,279.5 517.167,279.5 518.5,279.5C 518.405,281.786 517.738,283.786 516.5,285.5C 516.286,283.856 516.62,282.356 517.5,281C 516.263,280.768 515.263,280.268 514.5,279.5 Z"/></g>
<g><path style="opacity:1" fill="#9a620c" d="M 849.5,281.5 C 849.5,285.833 849.5,290.167 849.5,294.5C 841.167,294.5 832.833,294.5 824.5,294.5C 824.5,293.167 824.5,291.833 824.5,290.5C 824.5,288.833 824.5,287.167 824.5,285.5C 824.286,283.856 824.62,282.356 825.5,281C 833.677,280.177 841.677,280.344 849.5,281.5 Z"/></g>
<g><path style="opacity:1" fill="#5cafb7" d="M 1032.5,271.5 C 1032.5,276.5 1032.5,281.5 1032.5,286.5C 1031.5,286.53 1030.84,286.03 1030.5,285C 1031.09,280.352 1031.75,275.852 1032.5,271.5 Z"/></g>
<g><path style="opacity:1" fill="#e0c139" d="M 68.5,282.5 C 68.5,294.833 68.5,307.167 68.5,319.5C 67.1667,319.5 65.8333,319.5 64.5,319.5C 64.3335,309.828 64.5002,300.161 65,290.5C 65.0036,287.208 66.1703,284.542 68.5,282.5 Z"/></g>
<g><path style="opacity:0.854" fill="#43bcc2" d="M 101.5,283.5 C 105.192,282.971 108.358,283.971 111,286.5C 112.397,291.708 112.897,297.041 112.5,302.5C 108.596,296.366 104.929,290.032 101.5,283.5 Z"/></g>
<g><path style="opacity:0.987" fill="#cb15e3" d="M 771.5,285.5 C 789.167,285.5 806.833,285.5 824.5,285.5C 824.5,287.167 824.5,288.833 824.5,290.5C 807.833,290.5 791.167,290.5 774.5,290.5C 773.248,288.999 772.248,287.332 771.5,285.5 Z"/></g>
<g><path style="opacity:0.987" fill="#cb16e3" d="M 905.5,284.5 C 906.167,284.5 906.833,284.5 907.5,284.5C 906.525,286.795 905.192,288.795 903.5,290.5C 885.833,290.5 868.167,290.5 850.5,290.5C 850.5,288.833 850.5,287.167 850.5,285.5C 869.008,285.83 887.341,285.497 905.5,284.5 Z"/></g>
<g><path style="opacity:1" fill="#d6854c" d="M 206.5,286.5 C 222.833,286.5 239.167,286.5 255.5,286.5C 255.5,287.5 255.5,288.5 255.5,289.5C 239.167,289.5 222.833,289.5 206.5,289.5C 206.5,288.5 206.5,287.5 206.5,286.5 Z"/></g>
<g><path style="opacity:0.999" fill="#2f6e8a" d="M 206.5,289.5 C 222.833,289.5 239.167,289.5 255.5,289.5C 255.5,290.833 255.5,292.167 255.5,293.5C 239.167,293.5 222.833,293.5 206.5,293.5C 206.5,292.167 206.5,290.833 206.5,289.5 Z"/></g>
<g><path style="opacity:1" fill="#9e7c97" d="M 522.5,288.5 C 522.585,291.649 521.585,294.316 519.5,296.5C 519.733,293.458 520.733,290.792 522.5,288.5 Z"/></g>
<g><path style="opacity:0.992" fill="#d4796b" d="M 850.5,279.5 C 851.451,280.919 851.784,282.585 851.5,284.5C 869.5,284.5 887.5,284.5 905.5,284.5C 887.341,285.497 869.008,285.83 850.5,285.5C 850.5,287.167 850.5,288.833 850.5,290.5C 868.167,290.5 885.833,290.5 903.5,290.5C 903.068,291.71 902.401,292.71 901.5,293.5C 884.423,293.182 867.423,293.515 850.5,294.5C 850.167,294.5 849.833,294.5 849.5,294.5C 849.5,290.167 849.5,285.833 849.5,281.5C 850.338,281.158 850.672,280.492 850.5,279.5 Z"/></g>
<g><path style="opacity:1" fill="#8c73a4" d="M 516.5,285.5 C 515.995,288.521 515.328,291.521 514.5,294.5C 514.719,296.915 516.052,297.915 518.5,297.5C 517.116,298.801 515.616,298.801 514,297.5C 513.275,293.081 514.108,289.081 516.5,285.5 Z"/></g>
<g><path style="opacity:0.969" fill="#f0c73b" d="M 777.5,293.5 C 797.364,293.226 817.198,293.893 837,295.5C 841.68,295.499 846.18,295.166 850.5,294.5C 867.423,293.515 884.423,293.182 901.5,293.5C 890.914,306.467 877.247,314.3 860.5,317C 835.288,321.638 811.622,317.638 789.5,305C 784.998,301.664 780.998,297.831 777.5,293.5 Z"/></g>
<g><path style="opacity:0.999" fill="#e78745" d="M 206.5,293.5 C 222.833,293.5 239.167,293.5 255.5,293.5C 255.5,295.5 255.5,297.5 255.5,299.5C 239.167,299.5 222.833,299.5 206.5,299.5C 206.5,297.5 206.5,295.5 206.5,293.5 Z"/></g>
<g><path style="opacity:1" fill="#d77578" d="M 774.5,290.5 C 791.167,290.5 807.833,290.5 824.5,290.5C 824.5,291.833 824.5,293.167 824.5,294.5C 832.833,294.5 841.167,294.5 849.5,294.5C 849.833,294.5 850.167,294.5 850.5,294.5C 846.18,295.166 841.68,295.499 837,295.5C 817.198,293.893 797.364,293.226 777.5,293.5C 776.167,292.833 775.167,291.833 774.5,290.5 Z"/></g>
<g><path style="opacity:1" fill="#779ea2" d="M 1020.5,316.5 C 1020.17,316.5 1019.83,316.5 1019.5,316.5C 1019.5,310.5 1019.5,304.5 1019.5,298.5C 1011.17,298.5 1002.83,298.5 994.5,298.5C 994.5,304.5 994.5,310.5 994.5,316.5C 994.167,316.5 993.833,316.5 993.5,316.5C 993.5,310.167 993.5,303.833 993.5,297.5C 1002.5,297.5 1011.5,297.5 1020.5,297.5C 1020.5,303.833 1020.5,310.167 1020.5,316.5 Z"/></g>
<g><path style="opacity:1" fill="#3abbc6" d="M 1019.5,316.5 C 1018.5,316.5 1017.5,316.5 1016.5,316.5C 1016.5,311.167 1016.5,305.833 1016.5,300.5C 1010.17,300.5 1003.83,300.5 997.5,300.5C 997.5,305.833 997.5,311.167 997.5,316.5C 996.5,316.5 995.5,316.5 994.5,316.5C 994.5,310.5 994.5,304.5 994.5,298.5C 1002.83,298.5 1011.17,298.5 1019.5,298.5C 1019.5,304.5 1019.5,310.5 1019.5,316.5 Z"/></g>
<g><path style="opacity:1" fill="#59b1b9" d="M 1032.5,297.5 C 1033.12,304.255 1032.46,310.588 1030.5,316.5C 1029.88,309.745 1030.54,303.412 1032.5,297.5 Z"/></g>
<g><path style="opacity:0.999" fill="#0f6c90" d="M 206.5,299.5 C 222.833,299.5 239.167,299.5 255.5,299.5C 255.5,300.833 255.5,302.167 255.5,303.5C 239.167,303.5 222.833,303.5 206.5,303.5C 206.5,302.167 206.5,300.833 206.5,299.5 Z"/></g>
<g><path style="opacity:1" fill="#74a6aa" d="M 1016.5,316.5 C 1016.17,316.5 1015.83,316.5 1015.5,316.5C 1015.5,311.833 1015.5,307.167 1015.5,302.5C 1009.83,302.5 1004.17,302.5 998.5,302.5C 998.5,307.167 998.5,311.833 998.5,316.5C 998.167,316.5 997.833,316.5 997.5,316.5C 997.5,311.167 997.5,305.833 997.5,300.5C 1003.83,300.5 1010.17,300.5 1016.5,300.5C 1016.5,305.833 1016.5,311.167 1016.5,316.5 Z"/></g>
<g><path style="opacity:1" fill="#7ca1a4" d="M 984.5,297.5 C 986.456,303.412 987.123,309.745 986.5,316.5C 984.544,310.588 983.877,304.255 984.5,297.5 Z"/></g>
<g><path style="opacity:1" fill="#eb6a5e" d="M 1015.5,316.5 C 1009.83,316.5 1004.17,316.5 998.5,316.5C 998.5,311.833 998.5,307.167 998.5,302.5C 1004.17,302.5 1009.83,302.5 1015.5,302.5C 1015.5,307.167 1015.5,311.833 1015.5,316.5 Z"/></g>
<g><path style="opacity:1" fill="#806692" d="M 529.5,297.5 C 530.807,303.734 530.807,310.068 529.5,316.5C 529.167,316.5 528.833,316.5 528.5,316.5C 529.26,310.196 529.593,303.863 529.5,297.5 Z"/></g>
<g><path style="opacity:1" fill="#ee8741" d="M 206.5,303.5 C 222.833,303.5 239.167,303.5 255.5,303.5C 255.5,306.167 255.5,308.833 255.5,311.5C 253.833,311.5 252.167,311.5 250.5,311.5C 250.5,314.167 250.5,316.833 250.5,319.5C 235.833,319.5 221.167,319.5 206.5,319.5C 206.5,314.167 206.5,308.833 206.5,303.5 Z"/></g>
<g><path style="opacity:1" fill="#8a6990" d="M 532.5,277.5 C 531.375,278.652 531.375,279.652 532.5,280.5C 531.935,285.149 531.435,289.816 531,294.5C 530.517,293.552 530.351,292.552 530.5,291.5C 530.5,287.5 530.5,283.5 530.5,279.5C 528.533,279.261 526.699,279.594 525,280.5C 524.5,292.495 524.333,304.495 524.5,316.5C 524.167,316.5 523.833,316.5 523.5,316.5C 522.716,307.056 522.383,297.723 522.5,288.5C 523.159,285.545 523.492,282.545 523.5,279.5C 521.833,279.5 520.167,279.5 518.5,279.5C 518.5,279.167 518.5,278.833 518.5,278.5C 523.23,278.717 527.897,278.383 532.5,277.5 Z"/></g>
<g><path style="opacity:1" fill="#110803" d="M 540.5,313.5 C 540.5,314.5 540.5,315.5 540.5,316.5C 538.833,316.5 537.167,316.5 535.5,316.5C 536.659,314.75 538.326,313.75 540.5,313.5 Z"/></g>
<g><path style="opacity:1" fill="#5853a7" d="M 255.5,311.5 C 255.5,314.167 255.5,316.833 255.5,319.5C 253.833,319.5 252.167,319.5 250.5,319.5C 250.5,316.833 250.5,314.167 250.5,311.5C 252.167,311.5 253.833,311.5 255.5,311.5 Z"/></g>
</svg>
